<svg xmlns="http://www.w3.org/2000/svg" viewBox="0 0 60 60" x="0px" y="0px"><title>Bathroom Objects - Outline - 039 - Toilet Roll</title><g data-name="01-Toilet Front"><path d="M12,14c-2.41,0-4.3,3.07-4.3,7s1.89,7,4.3,7,4.3-3.07,4.3-7S14.41,14,12,14Zm0,12c-1.09,0-2.3-2.14-2.3-5s1.21-5,2.3-5,2.3,2.14,2.3,5S13.09,26,12,26Z"/><path d="M48,0H12C5.27,0,0,9.22,0,21S5.27,42,12,42H22V59a1,1,0,0,0,1,1H59a1,1,0,0,0,1-1V21C60,9.22,54.73,0,48,0ZM2,21C2,10.7,6.58,2,12,2s10,8.7,10,19S17.42,40,12,40,2,31.3,2,21ZM17.16,40A17.09,17.09,0,0,0,22,32.75V40ZM58,29H54a1,1,0,0,0,0,2h4V58H24V31h4a1,1,0,0,0,0-2H24V21c0-8.52-2.76-15.68-6.84-19H48c5.42,0,10,8.7,10,19Z"/><path d="M38,29H33a1,1,0,0,0,0,2h5a1,1,0,0,0,0-2Z"/><path d="M49,29H44a1,1,0,0,0,0,2h5a1,1,0,0,0,0-2Z"/></g></svg>