<svg id="Layer_1" data-name="Layer 1" xmlns="http://www.w3.org/2000/svg" viewBox="0 0 512 512"><defs><style>.cls-1{fill:#9b6946;}.cls-2{fill:#ffcf99;}.cls-3{fill:#d18e61;}</style></defs><title>paper-plane-flat</title><path class="cls-1" d="M363.59,443,336.64,335.21a6.74,6.74,0,0,0-9.55-4.39l-71,35.52a6.74,6.74,0,0,0-1,11.45l98,72.27A6.74,6.74,0,0,0,363.59,443Z"/><path class="cls-2" d="M507.45,236.15,8.92,61a6.74,6.74,0,0,0-8.3,9.2L148.83,420.5a6.74,6.74,0,0,0,9.13,3.2L508.28,248.55a6.74,6.74,0,0,0-.83-12.4Z"/><path class="cls-3" d="M413.86,290.34,104,142.13a6.74,6.74,0,0,0-7.19,11.28L324.11,340.63l26.41,105.63a6.74,6.74,0,0,0,6.19,5.09h.35a6.74,6.74,0,0,0,6.33-4.43l53.89-148.21A6.74,6.74,0,0,0,413.86,290.34Z"/></svg>